<svg xmlns="http://www.w3.org/2000/svg" width="463" height="463" viewBox="0 0 463 463">
    <path fill="#083042" d="M232.77,371.61c-0.18,0 -0.36,0.02 -0.55,0.02a28.94,28.94 0,0 1,-14.47 -3.74L116.03,310.43a19.15,19.15 0,0 1,-9.75 -16.51l-0,-116.83c-0.05,-4.99 0.94,-9.79 2.96,-14.03l-79.53,-44.56c-3.35,7 -4.98,14.94 -4.9,23.19l0,192.85c0.11,11.3 6.23,21.7 16.09,27.25l167.91,94.84a47.77,47.77 0,0 0,23.89 6.17l0,-0.14c0.19,-12.03 0.13,-60.54 0.07,-91.06z" />
    <path fill="#3ddc84" d="M109.25,163.05c2.18,-4.56 5.56,-8.45 10.17,-11.17l95.76,-56.49a28.94,28.94 0,0 1,28.96 -0.28l96.81,54.68c4.32,2.44 8.1,5.89 10.86,9.96l0.03,0.05 78.25,-46.73c-4.57,-6.73 -10.8,-12.42 -17.93,-16.45L252.36,6.36a47.77,47.77 0,0 0,-47.8 0.46L46.49,100.07c-7.6,4.49 -13.19,10.91 -16.78,18.43l79.53,44.56 0.01,-0.02z" />
    <path fill="#4285f4" d="m430.09,113.07 l-78.25,46.73c3,4.42 4.82,9.56 4.87,14.92l-0,111.18a28.96,28.96 0,0 1,-14.24 25.22l-95.76,56.5c-4.3,2.55 -9.11,3.86 -13.94,3.99 0.06,30.52 0.12,79.04 -0.07,91.06l-0,0.14c8.27,-0.07 16.53,-2.26 23.91,-6.62l158.07,-93.26a47.81,47.81 0,0 0,23.51 -41.62l0,-183.52c-0.09,-8.89 -3.12,-17.41 -8.1,-24.71z" />
    <path fill="#041619" d="M232.71,325.4c-0.24,0.01 -0.48,0.03 -0.73,0.03a19.4,19.4 0,0 1,-9.7 -2.51L154.1,284.41a12.79,12.79 0,0 1,-4.75 -4.66,12.85 12.85,0 0,1 -1.78,-6.41v-78.31a23.22,23.22 0,0 1,0.1 -2.48,20.83 20.83,0 0,1 1.53,-6.07l-18.41,-11.34 -21.55,-12.07c-2.02,4.24 -3.01,9.04 -2.96,14.03l0,116.83a19.15,19.15 0,0 0,9.75 16.51l101.72,57.46a28.94,28.94 0,0 0,14.47 3.74c0.18,-0 0.36,-0.02 0.55,-0.02 -0.03,-14.89 -0.06,-25.5 -0.06,-25.5z" />
    <path fill="#37bf6e" d="m340.95,149.79 l-96.81,-54.68a28.94,28.94 0,0 0,-28.96 0.28l-95.76,56.49c-4.61,2.72 -7.99,6.61 -10.17,11.17l-0.01,0.02 21.55,12.07 18.41,11.34c0.12,-0.28 0.22,-0.58 0.35,-0.86 0.18,-0.38 0.38,-0.76 0.59,-1.12 0.42,-0.74 0.88,-1.44 1.4,-2.11a17.03,17.03 0,0 1,4.83 -4.26l64.19,-37.87a19.36,19.36 0,0 1,4.32 -1.88c0.2,-0.06 0.41,-0.12 0.62,-0.17a19.39,19.39 0,0 1,14.47 1.87l64.89,36.65a22.01,22.01 0,0 1,5.77 4.71c0.54,0.63 1.05,1.28 1.51,1.97 0.21,0.31 0.4,0.62 0.59,0.94l16.55,-11.07 22.55,-13.47 -0.03,-0.05c-2.77,-4.08 -6.55,-7.52 -10.86,-9.96z" />
    <path fill="#3870b2" d="M312.74,184.34c0.27,0.45 0.53,0.91 0.77,1.38 0.2,0.4 0.39,0.8 0.56,1.22 0.34,0.82 0.63,1.67 0.85,2.53 0.33,1.29 0.51,2.63 0.52,3.98l-0,74.53a19.42,19.42 0,0 1,-1.77 8.27c-0.23,0.5 -0.47,0.99 -0.74,1.47a19.42,19.42 0,0 1,-3.93 4.9,19.35 19.35,0 0,1 -3.1,2.27l-64.19,37.87a19.33,19.33 0,0 1,-8.98 2.66l0,20.7s0.03,10.61 0.06,25.5c4.83,-0.13 9.63,-1.44 13.94,-3.99l95.76,-56.5a28.96,28.96 0,0 0,14.24 -25.22L356.72,174.72c-0.05,-5.37 -1.88,-10.51 -4.87,-14.92l-22.55,13.47z" />
</svg>